<?xml version="1.0" encoding="UTF-8" standalone="no"?>
<!-- Created with Inkscape (http://www.inkscape.org/) -->

<svg
   width="478"
   height="93"
   viewBox="0 0 126.47083 24.606249"
   version="1.1"
   id="svg1"
   inkscape:version="1.4.4 (dcaf3e7d9e, 2026-05-05)"
   sodipodi:docname="spacium.svg"
   xmlns:inkscape="http://www.inkscape.org/namespaces/inkscape"
   xmlns:sodipodi="http://sodipodi.sourceforge.net/DTD/sodipodi-0.dtd"
   xmlns="http://www.w3.org/2000/svg"
   xmlns:svg="http://www.w3.org/2000/svg">
  <sodipodi:namedview
     id="namedview1"
     pagecolor="#ffffff"
     bordercolor="#000000"
     borderopacity="0.25"
     inkscape:showpageshadow="2"
     inkscape:pageopacity="0.0"
     inkscape:pagecheckerboard="0"
     inkscape:deskcolor="#d1d1d1"
     inkscape:document-units="mm"
     inkscape:zoom="0.74564394"
     inkscape:cx="103.93701"
     inkscape:cy="118.68936"
     inkscape:window-width="1920"
     inkscape:window-height="1048"
     inkscape:window-x="0"
     inkscape:window-y="0"
     inkscape:window-maximized="1"
     inkscape:current-layer="svg1"
     showgrid="false" />
  <defs
     id="defs1" />
  <path
     d="m 31.670843,231.22211 c 0,-3.21732 -0.524932,-5.33399 -2.692395,-7.51838 l 2.082796,-2.42146 v -5.72346 H 15.397942 v 5.72346 h 8.46665 l -8.77145,9.93984 h 7.416786 l 2.506128,-2.91253 c 0.558799,0.69427 0.897465,1.6256 0.863599,2.91253 z M 46.74148,218.9116 c -0.06773,0 -0.152399,0 -0.220133,0 -1.168397,0 -2.116662,-0.94826 -2.116662,-2.09973 0,-0.47413 0.1524,-0.89746 0.423332,-1.25306 -0.03387,0 -0.0508,0 -0.06773,0 H 33.668973 l -1.185331,15.6633 h 5.757322 l 0.694265,-9.05931 h 1.710263 c 0.338666,0 0.474133,0.1016 0.524933,0.4572 0,0 0.06773,0.3556 1.354664,8.60211 H 48.63801 C 47.368012,222.89093 46.74148,218.9116 46.74148,218.9116 Z m -0.220133,-0.42333 c 0.931332,0 1.69333,-0.74506 1.69333,-1.6764 0,-0.93133 -0.761998,-1.69333 -1.69333,-1.69333 -0.931331,0 -1.69333,0.762 -1.69333,1.69333 0,0.93134 0.761999,1.6764 1.69333,1.6764 z m 0,-2.35373 c 0.372533,0 0.677332,0.3048 0.677332,0.67733 0,0.3556 -0.304799,0.6604 -0.677332,0.6604 -0.372532,0 -0.677332,-0.3048 -0.677332,-0.6604 0,-0.37253 0.3048,-0.67733 0.677332,-0.67733 z m 14.020773,-0.57573 -11.277578,-0.5588 v 4.38573 l 11.277578,0.55879 z m 0,8.33118 V 220.588 l -11.277578,-0.5588 v 4.38573 l 7.738518,0.37253 c 0,0 -3.691459,0.77893 -7.738518,1.0668 v 5.52025 c 5.452523,-0.54186 8.906916,-1.33773 8.906916,-1.33773 0,0 3.43746,-0.77893 7.179719,-2.25213 v -5.50332 c -2.031996,0.79587 -4.809057,1.60866 -4.809057,1.60866 z m 17.085699,-7.16278 v -1.59173 h -6.400787 v 1.59173 h -4.605858 v 9.92291 h 6.180655 V 222.62 h 2.963327 c -0.03387,0.254 -0.0508,0.508 -0.08467,0.76199 -0.287866,2.47227 -1.303864,5.89279 -2.472262,7.84012 h 6.72252 c 1.371598,-2.47226 2.387596,-7.75545 2.387596,-11.39611 0,0 0,-0.84666 0,-3.09879 z m 20.42156,3.65759 h -6.248387 c 0.118533,0.37253 0.524932,2.794 0.795865,5.18159 h -2.438396 l 1.236131,-10.43091 h -6.400787 l -1.913463,16.08663 h 16.222101 c 0,-2.89559 -0.948264,-10.10918 -1.253064,-10.83731 z"
     id="text2-4"
     style="fill:#d41e3c;"
     transform="matrix(1.5012196,0,0,1.5012196,-22.658121,-322.76222)"
     aria-label="スペシウム"
     inkscape:label="spacium" />
</svg>

